<svg width="13" height="32" viewBox="0 0 13 32" fill="none" xmlns="http://www.w3.org/2000/svg">
<path d="M3.22689 3.2C3.22689 2.35131 3.56687 1.53737 4.17203 0.937258C4.77718 0.337142 5.59796 0 6.45378 0C7.30961 0 8.13038 0.337142 8.73554 0.937258C9.3407 1.53737 9.68067 2.35131 9.68067 3.2C9.68067 4.04869 9.3407 4.86263 8.73554 5.46274C8.13038 6.06286 7.30961 6.4 6.45378 6.4C5.59796 6.4 4.77718 6.06286 4.17203 5.46274C3.56687 4.86263 3.22689 4.04869 3.22689 3.2ZM0 12.8C0 11.62 0.961345 10.6667 2.15126 10.6667H6.45378C7.6437 10.6667 8.60504 11.62 8.60504 12.8V27.7333H10.7563C11.9462 27.7333 12.9076 28.6867 12.9076 29.8667C12.9076 31.0467 11.9462 32 10.7563 32H2.15126C0.961345 32 0 31.0467 0 29.8667C0 28.6867 0.961345 27.7333 2.15126 27.7333H4.30252V14.9333H2.15126C0.961345 14.9333 0 13.98 0 12.8Z" fill="white"/>
</svg>
